<svg xmlns="http://www.w3.org/2000/svg" viewBox="0 0 722.25 627.17"><defs><style>.cls-1{fill:#101210;}.cls-2{fill:#111310;}</style></defs><g id="Layer_2" data-name="Layer 2"><g id="Layer_1-2" data-name="Layer 1"><path class="cls-1" d="M318,214.64c-.17-3.22-.13-6.47-1.49-9.51a6.4,6.4,0,0,1-.67-4.34c1.8-6.35-.73-12.23-2.16-18.14-2.22-9.25-3.24-18.53-2.1-28a25.05,25.05,0,0,0-.87-11.77c-2.52-7-3.88-14.29-7-21.17-3.75-8.32-3-17.46-1.92-26.39.33-2.71.78-5.41,1.17-8.12C309,77,313.87,65.26,325.15,60c7.39-3.46,16.67-6.33,24.32-4.8a58.22,58.22,0,0,0,20.39.59,28.25,28.25,0,0,1,8.17.35A17.89,17.89,0,0,0,389,54.44c13.15-6.69,26.49-7.79,40-1.15A18.33,18.33,0,0,0,435.46,55c3.11.28,6.52-2.17,9.3.75a29.16,29.16,0,0,1,6.91,11.41c2.61,8.54,4.48,17.32,6.74,25.95C460,99,457.8,106,459.72,112.24c3.69,11.92,3.55,24.46,6.4,36.47,1.4,5.85-1.2,11.28-.63,17.06,1.62,16.26-.24,33,6.81,48.48,1.26,2.78.76,6,.5,8.91-1.13,12.47,2.2,24.64,2.63,37,.41,11.47,1,23.6,3.85,34.58,2.09,8,2.22,14.2-.85,21.28a7.39,7.39,0,0,0,1.65,8.36c3.3,3.39,3.2,7.07,1.95,11.34-2.45,8.29-3.19,16.67.88,24.78,1.71,3.4,1.67,6.79,1.14,10.52a116.32,116.32,0,0,0,1.46,40,45.92,45.92,0,0,1,.46,17.82c-.78,4.21-1.57,8.65-.12,12.63,6.09,16.76,3.78,34.08,3.34,51.17C489,501,490.68,509,491.94,517c.64,4,.74,7-1.27,10.34-2.26,3.76-4,7.4.16,11.41,2.08,2,1.81,5.22.09,7.66-3.08,4.38-2.95,8.76-.9,13.46a9,9,0,0,1-.43,8c-2.21,4.21-4.29,8.31-4.22,13.38,0,2.61-1.56,5.4-5.39,3.87-10.37-1.47-20.07,3.06-30.25,3.39-1.79.06-3.18,1.33-4.58,2.39l-5.74.29c-3.72,2.19-8.38.32-12,2.81l0-.05c-3.42-.1-6.66.36-9.22,2.94-17.74.08-35.47.2-53.21.2-8.06,0-10-1.08-11.81-8.56-1.38-5.73-5.05-10.21-7.05-15.61a59.53,59.53,0,0,1-4.12-23.4c.37-9.07-.1-17.94-4-26.34a23.52,23.52,0,0,1-1.84-11c.32-9.57-.56-18.89-4.54-27.79-1-2.22-1.07-4.84-1.57-7.28a8.82,8.82,0,0,1-1.41-5.66c1.2-11-3.87-19.45-10.59-27.32v0a14.7,14.7,0,0,0-1.87-8.63,25.6,25.6,0,0,1-3.87-11.91c-.34-4.55-2.27-6-6.79-6.33a14.34,14.34,0,0,0-7.34,1,12.81,12.81,0,0,1-11.52.2,8.18,8.18,0,0,0-6.54.08c-6.54,2.45-13.22,1.74-19.89.72-1.47-.22-3.11-1.12-4.34-.71-7.11,2.39-14.31,1.1-21.5,1a20.24,20.24,0,0,0-12,3.43c-3.09,2.1-6.22,4.13-9.33,6.2-1.71.31-3.75.13-5.06,1-10.29,7-20.5,14.11-27.17,25.06-1.7,2.77-2.23,5.6-.55,8.46,2.08,3.55,1.56,6.76-1.18,9.52-3.09,3.14-3.43,6.93-3.57,11-.44,12,.68,23.86,1.83,35.75.17,1.73.64,3.65.12,5.19-3.83,11.35-2,23-2,34.53a22.07,22.07,0,0,1-.56,5.19c-2.34,9.53-2.07,19.15-1.13,28.8.72,7.53-2.71,13.08-9.93,15.43a21.91,21.91,0,0,0-9.39,5.85,35.36,35.36,0,0,0-13.84,2.66C129.77,621.84,118.8,625,107,624a28.69,28.69,0,0,0-11,1.64c-6.31,2-12.9,1.77-19.29.65a17,17,0,0,1-12.18-7.94,19,19,0,0,0-11-8.66c-11.21-3-15.41-11.42-17.11-21.39-1.53-9.05-4.36-18-4-27.29a38.41,38.41,0,0,1,.79-16.22A20.61,20.61,0,0,0,32,530.28c-2.9-6.43-6.21-12.84-3.47-20.7,1.24-3.54-1.2-7.88-4-10.79S21,493,23.38,489.53a4.49,4.49,0,0,0,.5-4.28c-2-5.66-2.6-11.65-4.1-17.42a48.52,48.52,0,0,1-1.87-11,11,11,0,0,0-.38-3.7c-5.12-12.68-3.69-26.27-5.73-39.37-1.26-8.07-3.78-15.95-5.73-23.92-.05-5.73.86-11.68-.36-17.15-2.09-9.4-2.71-18.48,0-27.8A9.09,9.09,0,0,0,5.09,339c-2.36-5.07-2-10.7-1-15.41,1.27-6.24-.55-11.7-1.07-17.5H3C-.3,299.45,1.89,292,0,285.09q.06-20.91.11-41.81c1.35-1.84,2.73-3.85,2.54-6.12-.57-6.69,2.76-13,1.4-19.91-.81-4.12,2.35-8.47,2-13.12-.82-9.63-1.35-19.29-2-28.94a8.12,8.12,0,0,1,.16-3.66,15,15,0,0,0-.21-13,4.21,4.21,0,0,1-.39-2.91c3.11-7.49.45-16,4.08-23.36a6.94,6.94,0,0,0,.83-4.32c-1.69-6.42,1.38-11.71,3.67-17.19,1.95-4.64,4.9-7.49,10.52-8.09,6.92-.73,13.37-3.8,19.77-6.57,4.1-1.79,8-4,12.1-5.83A12,12,0,0,1,60.33,89C72.05,90.4,82.74,85.33,94,84c9.05-1.1,18.11-2.8,27.17-2.82,4.41,0,8.87,2.71,13.63,1a1.55,1.55,0,0,1,1.37.44c3.73,5.25,10.41,8.83,9.56,16.69-.9.36-2.57.66-2.6,1.08-.32,4.54-2,10-.1,13.44,2.43,4.45,1,9.21,3.24,13.38.94,1.73-.59,3.87-2,5.35-2.42,2.53-2.41,5.17-1.06,8.23,1.65,3.74,1.56,7.67,1.19,11.75-.89,9.67-1.43,19.38-1.88,29.09-.26,5.47-.36,11,1.71,16.26a7,7,0,0,1,.42,3c-.73,11.66.39,23.32,0,35-.12,3.21.39,5.89,2.33,8.36a10.29,10.29,0,0,1,2,9.18,30,30,0,0,0,2.74,20.39c3.2,6.37,7.5,12.7,14.72,16.16,8.3,4,16.36,8.48,24.35,13.07,4.1,2.35,8.16,3.61,12.84,2.54,5.55-1.26,10.7,1.87,16.26,1.44,8.61-.66,17.19.07,25.5-4,4.72-2.32,10.65-2.79,16.06-2.92s10.82-.09,15.52-1.82c8.72-3.23,16.95-7.75,26.32-9.29a3.85,3.85,0,0,0,3.07-4.57c-.86-4.56,1.81-5.17,5.21-4.87s5.69-1.19,6.87-4.44A6.68,6.68,0,0,1,320,272.5c8.75-8.16,8-18.08,5.32-28.36-1.26-4.8-3.19-9.57-.44-14.51,1.15-2.07.46-3.94-1.16-5.39C320.75,221.63,319.7,218,318,214.64Z"/><path class="cls-2" d="M713.59,542.19q-12.69,7.57-25.38,15.14c-4,2.4-8.11,4.75-12.13,7.16a12.09,12.09,0,0,1-7.2,1.32c-2.88-3.59-5.79-4.54-10.92-3.51-7.5,1.51-15,3.88-22.75,3.93a10.58,10.58,0,0,0-4.41.65c-5.28,2.55-10.09,2-14.73-1.46-1.72-1.3-3.7-1.23-5.71-.44-7.24,2.86-13.19.43-18.3-4.76a14.42,14.42,0,0,0-8.26-4.43c-6.16-1.13-11.14-4.84-12.7-11.23-1.8-7.37-5.48-14.55-2.83-22.63.87-2.64-.9-5.44-2.08-7.81-4.21-8.44-3.69-17.55-3.43-26.39.2-7,.7-13.93.9-20.91.35-11.94-.71-23.9,1.16-35.86.87-5.59.19-11.43-.5-17.16-1-8.44-1.39-16.89,1.46-25.18a16.32,16.32,0,0,0-.12-11.05c-1.7-4.57-1.91-9.23-1.95-14-.13-14-.35-27.91-.54-41.87a8.51,8.51,0,0,0-.26-3c-3-7.45-2.4-15.27-1.95-22.94A111.12,111.12,0,0,0,557.72,261c-.31-1.2-.24-2.61-.86-3.62-5.36-8.78-5.35-18.6-5.23-28.29.13-10.25-1.91-20.24-2.93-30.34-.27-2.61-2-5.07-3-7.61,0-1.93-.09-3.86-.14-5.79-3.38-4.94-1.49-9.91-.1-14.87q0-4.65-.08-9.3c-1.51-3.26.64-7-1.3-10.2l-.05-.13c-1.67-6.51,1.92-13.37-1.31-19.77l-6.06-26.7c-3.83-20.15,5.65-42.34,22.81-53.2,3.41-2.15,7-4.32,9.14-7.65,5.72-8.81,13.92-15.33,21.54-22,7.24-6.37,13.17-14.09,21.07-19.74,2.9-2.07,5-2.43,8-.4,5.21,3.52,10.42,6.88,12.45,13.33a5.17,5.17,0,0,0,2.07,3.07c11.46,5.87,10.59,17.47,12.91,27.56.89,3.91,1.6,7.9,3.38,11.48,4.48,9,5.43,18.67,6.42,28.4.1,1-.25,2.53.22,2.82,7.3,4.56,3.28,11.13,3,16.92-.39,9.51,1.69,18.72,3.12,28,.29,1.93.18,3.74-1.35,4.72-4.66,3-3.14,6.07-.62,9.49a8.86,8.86,0,0,1,1.28,6.86c-.51,3.23-.51,6.4,1.61,9.23a4.27,4.27,0,0,1,1,3.54c-3.12,11.28,3.44,21.79,2.44,33.11-.6,6.85,1.83,14.08,3.39,21,2.62,11.65,5.36,23.22,3.39,35.36a28.71,28.71,0,0,0,6.32,23c7.06,8.84,8.83,18.22,6.82,29.35-1.33,7.42,0,15.22-3.27,22.58a5.43,5.43,0,0,0,3.86,7.2c10.07,2.11,10.92,11,12.72,18.08,3.28,13,4.25,26.44,5.61,39.73.78,7.67.4,15.54,2.35,23,4.59,17.62,3.91,36.45,12.31,53.18a7,7,0,0,1,.19,5.86c-5.4,12.63-1.81,25.12.92,37.44,1.74,7.85-2,14.62-2.54,22C719.08,540.23,715.53,540.69,713.59,542.19Z"/></g></g></svg>